<svg id="visual" viewBox="0 0 900 180" width="900" height="180" xmlns="http://www.w3.org/2000/svg" xmlns:xlink="http://www.w3.org/1999/xlink" version="1.1"><path d="M0 62L10.7 63C21.3 64 42.7 66 64.2 71.5C85.7 77 107.3 86 128.8 94.2C150.3 102.3 171.7 109.7 193 104C214.3 98.3 235.7 79.7 257 79.8C278.3 80 299.7 99 321.2 103.2C342.7 107.3 364.3 96.7 385.8 94.7C407.3 92.7 428.7 99.3 450 103.2C471.3 107 492.7 108 514.2 106.7C535.7 105.3 557.3 101.7 578.8 96.3C600.3 91 621.7 84 643 78.8C664.3 73.7 685.7 70.3 707 71.5C728.3 72.7 749.7 78.3 771.2 80.8C792.7 83.3 814.3 82.7 835.8 78C857.3 73.3 878.7 64.7 889.3 60.3L900 56L900 181L889.3 181C878.7 181 857.3 181 835.8 181C814.3 181 792.7 181 771.2 181C749.7 181 728.3 181 707 181C685.7 181 664.3 181 643 181C621.7 181 600.3 181 578.8 181C557.3 181 535.7 181 514.2 181C492.7 181 471.3 181 450 181C428.7 181 407.3 181 385.8 181C364.3 181 342.7 181 321.2 181C299.7 181 278.3 181 257 181C235.7 181 214.3 181 193 181C171.7 181 150.3 181 128.8 181C107.3 181 85.7 181 64.2 181C42.7 181 21.3 181 10.7 181L0 181Z" fill="#001a47" stroke-linecap="round" stroke-linejoin="miter"></path></svg>